<svg xmlns="http://www.w3.org/2000/svg" viewBox="0 0 218.37 189"><g id="Layer_2" data-name="Layer 2"><g id="Layer_1-2" data-name="Layer 1"><path d="M163.14,189H116.83a1.6,1.6,0,0,1-1.6-1.59V101.2a1.6,1.6,0,0,1,1.59-1.6H141.7a1.6,1.6,0,0,1,1.59,1.6v12.22a1.6,1.6,0,0,1-1.59,1.6h-9.88v57.72H154L199.17,94.5,154,16.25H131.82V74h9.88a1.6,1.6,0,0,1,1.59,1.6v12a1.6,1.6,0,0,1-1.59,1.6H116.82a1.6,1.6,0,0,1-1.59-1.6v-86A1.6,1.6,0,0,1,116.83,0h46.31a1.59,1.59,0,0,1,1.38.8l53.64,92.9a1.63,1.63,0,0,1,0,1.6l-53.64,92.9A1.59,1.59,0,0,1,163.14,189Zm-44.72-3.19h43.8L214.93,94.5,162.22,3.19h-43.8V86H140.1V77.17h-9.88a1.59,1.59,0,0,1-1.59-1.59V14.66a1.59,1.59,0,0,1,1.59-1.59h24.7a1.6,1.6,0,0,1,1.38.79L202.39,93.7a1.58,1.58,0,0,1,0,1.6L156.3,175.14a1.6,1.6,0,0,1-1.38.79h-24.7a1.59,1.59,0,0,1-1.59-1.59V113.42a1.59,1.59,0,0,1,1.59-1.59h9.88v-9H118.42v83Z" style="fill:#474c55"/><path d="M154.73,141.7h-9.21a1.6,1.6,0,0,1-1.59-1.6V130a1.62,1.62,0,0,1,.23-.83l21.19-34.79-21.2-35.85a1.61,1.61,0,0,1-.22-.81v-9a1.59,1.59,0,0,1,1.59-1.6h9.21a1.59,1.59,0,0,1,1.38.8L182.5,93.6a1.61,1.61,0,0,1,0,1.59L156.11,140.9A1.61,1.61,0,0,1,154.73,141.7Zm-7.61-3.19h6.69l25.47-44.12L153.81,50.28h-6.69v7l21.46,36.3a1.58,1.58,0,0,1,0,1.64l-21.45,35.23Z" style="fill:#474c55"/><path d="M101.54,189H55.23a1.59,1.59,0,0,1-1.38-.8L.21,95.3a1.63,1.63,0,0,1,0-1.6L53.85.8A1.59,1.59,0,0,1,55.23,0h46.31a1.6,1.6,0,0,1,1.6,1.59v86a1.6,1.6,0,0,1-1.59,1.6H76.67a1.6,1.6,0,0,1-1.59-1.6v-12A1.6,1.6,0,0,1,76.67,74h9.88V16.25H64.37L19.2,94.5l45.17,78.24H86.55V115H76.67a1.6,1.6,0,0,1-1.59-1.6V101.2a1.6,1.6,0,0,1,1.59-1.6h24.88a1.6,1.6,0,0,1,1.59,1.6v86.21A1.6,1.6,0,0,1,101.54,189Zm-45.39-3.19H100v-83H78.27v9h9.88a1.59,1.59,0,0,1,1.59,1.59v60.92a1.59,1.59,0,0,1-1.59,1.59H63.45a1.6,1.6,0,0,1-1.38-.79L16,95.3a1.58,1.58,0,0,1,0-1.6L62.07,13.86a1.6,1.6,0,0,1,1.38-.79h24.7a1.59,1.59,0,0,1,1.59,1.59V75.58a1.59,1.59,0,0,1-1.59,1.59H78.27V86H100V3.19H56.15L3.44,94.5Z" style="fill:#474c55"/><path d="M72.85,141.7H63.64a1.61,1.61,0,0,1-1.38-.8L35.87,95.19a1.61,1.61,0,0,1,0-1.59L62.26,47.89a1.59,1.59,0,0,1,1.38-.8h9.21a1.59,1.59,0,0,1,1.59,1.6v9a1.61,1.61,0,0,1-.22.81L53,94.38l21.19,34.79a1.62,1.62,0,0,1,.23.83v10.1A1.6,1.6,0,0,1,72.85,141.7Zm-8.29-3.19h6.69v-8.06L49.8,95.22a1.58,1.58,0,0,1,0-1.64l21.46-36.3v-7H64.56L39.1,94.39Z" style="fill:#474c55"/></g></g></svg>